<?xml version="1.0" encoding="UTF-8" standalone="no"?>
<svg width="160px" height="160px" viewBox="0 0 160 160" version="1.1" xmlns="http://www.w3.org/2000/svg" xmlns:xlink="http://www.w3.org/1999/xlink" xmlns:sketch="http://www.bohemiancoding.com/sketch/ns">
    <!-- Generator: Sketch 3.4.3 (16618) - http://www.bohemiancoding.com/sketch -->
    <title>HowTo</title>
    <desc>Created with Sketch.</desc>
    <defs></defs>
    <g id="Page-1" stroke="none" stroke-width="1" fill="none" fill-rule="evenodd" sketch:type="MSPage">
        <g id="HowTo" sketch:type="MSLayerGroup" transform="translate(6.000000, 35.000000)">
            <rect id="Rectangle-69" stroke="#4F4240" stroke-width="4" stroke-linecap="round" stroke-linejoin="round" fill="#917E75" sketch:type="MSShapeGroup" x="0" y="81" width="150" height="9"></rect>
            <rect id="Rectangle-70" stroke="#4F4240" stroke-width="4" stroke-linecap="round" stroke-linejoin="round" fill="#917E75" sketch:type="MSShapeGroup" x="8" y="0" width="134" height="83"></rect>
            <circle id="Oval-45" opacity="0.6" fill="#D8D8D8" sketch:type="MSShapeGroup" cx="74.5" cy="6.5" r="1.5"></circle>
            <rect id="Rectangle-71" stroke="#4F4240" stroke-width="2" stroke-linecap="round" stroke-linejoin="round" fill="#EAE7C8" sketch:type="MSShapeGroup" x="16" y="9" width="118" height="72"></rect>
            <circle id="Oval-44" stroke="#4F4240" stroke-width="2" stroke-linecap="round" stroke-linejoin="round" fill="#67C39F" sketch:type="MSShapeGroup" cx="75" cy="45" r="23"></circle>
            <path d="M132,11 L132,79 L22,79 L132,11 Z" id="Rectangle-71-Copy" opacity="0.2" fill="#FFFFFF" sketch:type="MSShapeGroup"></path>
            <circle id="Oval-44-Copy" stroke="#FFFFFF" stroke-width="2" stroke-linecap="round" stroke-linejoin="round" opacity="0.5" sketch:type="MSShapeGroup" cx="75" cy="45" r="19"></circle>
            <rect id="Rectangle-74" stroke="#4F4240" stroke-width="2" stroke-linecap="round" stroke-linejoin="round" fill="#F0C782" sketch:type="MSShapeGroup" x="26" y="40" width="19" height="13"></rect>
            <rect id="Rectangle-74-Copy" stroke="#4F4240" stroke-width="2" stroke-linecap="round" stroke-linejoin="round" fill="#EC7878" sketch:type="MSShapeGroup" x="103" y="40" width="19" height="13"></rect>
            <rect id="Rectangle-72" stroke="#4F4240" stroke-width="2" stroke-linecap="round" stroke-linejoin="round" fill="#F0C782" sketch:type="MSShapeGroup" x="60" y="79" width="30" height="6"></rect>
            <path d="M25,47 L46,47" id="Line" stroke="#4F4240" stroke-width="2" stroke-linecap="square" stroke-linejoin="round" sketch:type="MSShapeGroup"></path>
            <path d="M102,47 L123,47" id="Line-Copy-15" stroke="#4F4240" stroke-width="2" stroke-linecap="square" stroke-linejoin="round" sketch:type="MSShapeGroup"></path>
            <path d="M69.2072541,35.2883607 C69.5485946,34.9690421 69.9257151,34.6662446 70.338627,34.379959 C70.7515389,34.0936734 71.2029825,33.8404246 71.6929713,33.6202049 C72.1829601,33.3999852 72.7114794,33.2265648 73.2785451,33.0999385 C73.8456108,32.9733122 74.4594639,32.91 75.120123,32.91 C75.9899907,32.91 76.7965332,33.0366244 77.5397746,33.289877 C78.283016,33.5431297 78.9243962,33.9009813 79.4639344,34.3634426 C80.0034726,34.825904 80.4273892,35.3874557 80.7356967,36.0481148 C81.0440043,36.7087738 81.1981557,37.4520041 81.1981557,38.2778279 C81.1981557,39.1146627 81.074284,39.8358713 80.8265369,40.4414754 C80.5787897,41.0470795 80.2649814,41.5783515 79.8851025,42.0353074 C79.5052235,42.4922632 79.0895651,42.8886527 78.6381148,43.2244877 C78.1866644,43.5603227 77.7655006,43.8768838 77.3746107,44.1741803 C76.9837207,44.4714769 76.6478907,44.768769 76.3671107,45.0660656 C76.0863306,45.3633621 75.923921,45.6936867 75.879877,46.0570492 L75.582582,48.5840574 L73.567582,48.5840574 L73.3693852,45.8423361 L73.3693852,45.6606557 C73.3693852,45.1981944 73.493257,44.7880414 73.7410041,44.4301844 C73.9887512,44.0723274 74.3025596,43.7364975 74.6824385,43.4226844 C75.0623175,43.1088714 75.4697178,42.795063 75.9046516,42.48125 C76.3395855,42.167437 76.7469858,41.8205962 77.1268648,41.4407172 C77.5067437,41.0608383 77.820552,40.6286636 78.0682992,40.1441803 C78.3160463,39.659697 78.439918,39.0871345 78.439918,38.4264754 C78.439918,37.9530031 78.3463261,37.5235812 78.1591393,37.1381967 C77.9719526,36.7528123 77.7187038,36.4252404 77.3993852,36.1554713 C77.0800667,35.8857022 76.7029462,35.6792493 76.2680123,35.5361066 C75.8330784,35.3929638 75.3678713,35.3213934 74.872377,35.3213934 C74.200707,35.3213934 73.6253917,35.4039746 73.1464139,35.5691393 C72.6674361,35.7343041 72.2627885,35.9159826 71.932459,36.1141803 C71.6021295,36.312378 71.3351171,36.4940566 71.1314139,36.6592213 C70.9277107,36.8243861 70.7597957,36.9069672 70.6276639,36.9069672 C70.3523893,36.9069672 70.1376784,36.7803428 69.9835246,36.5270902 L69.2072541,35.2883607 Z M72.4444672,55.0254508 C72.4444672,54.7391652 72.4967686,54.4694002 72.601373,54.2161475 C72.7059773,53.9628949 72.8491179,53.7426785 73.0307992,53.5554918 C73.2124804,53.3683051 73.4299441,53.219659 73.6831967,53.1095492 C73.9364494,52.9994393 74.2062144,52.9443852 74.4925,52.9443852 C74.7787856,52.9443852 75.0485506,52.9994393 75.3018033,53.1095492 C75.5550559,53.219659 75.7752723,53.3683051 75.962459,53.5554918 C76.1496457,53.7426785 76.2955391,53.9628949 76.4001434,54.2161475 C76.5047478,54.4694002 76.5570492,54.7391652 76.5570492,55.0254508 C76.5570492,55.3227474 76.5047478,55.5952652 76.4001434,55.8430123 C76.2955391,56.0907594 76.1496457,56.3082231 75.962459,56.4954098 C75.7752723,56.6825966 75.5550559,56.8284899 75.3018033,56.9330943 C75.0485506,57.0376986 74.7787856,57.09 74.4925,57.09 C74.2062144,57.09 73.9364494,57.0376986 73.6831967,56.9330943 C73.4299441,56.8284899 73.2124804,56.6825966 73.0307992,56.4954098 C72.8491179,56.3082231 72.7059773,56.0907594 72.601373,55.8430123 C72.4967686,55.5952652 72.4444672,55.3227474 72.4444672,55.0254508 L72.4444672,55.0254508 Z" id="?" fill="#4F4240" sketch:type="MSShapeGroup"></path>
        </g>
    </g>
</svg>