<?xml version="1.0" encoding="UTF-8" standalone="no"?>
<svg width="160px" height="160px" viewBox="0 0 160 160" version="1.1" xmlns="http://www.w3.org/2000/svg" xmlns:xlink="http://www.w3.org/1999/xlink" xmlns:sketch="http://www.bohemiancoding.com/sketch/ns">
    <!-- Generator: Sketch 3.4.3 (16618) - http://www.bohemiancoding.com/sketch -->
    <title>Get started</title>
    <desc>Created with Sketch.</desc>
    <defs></defs>
    <g id="Page-1" stroke="none" stroke-width="1" fill="none" fill-rule="evenodd" sketch:type="MSPage">
        <g id="Get-started" sketch:type="MSLayerGroup" transform="translate(88.853553, 72.853553) rotate(-315.000000) translate(-88.853553, -72.853553) translate(22.853553, -4.646447)">
            <path d="M6.5,100 C14.6666667,90 50.9999982,62 50.9999982,62 L50.9999982,122 L1,122 C1,122 -1.66666667,110 6.5,100 Z" id="Rectangle-14" stroke="#4F4240" stroke-width="4" stroke-linecap="round" stroke-linejoin="round" fill="#EAE7C8" sketch:type="MSShapeGroup"></path>
            <path d="M86.9161967,100 C95.0828634,90 131,62 131,62 L131,122 L81.4161967,122 C81.4161967,122 78.7495301,110 86.9161967,100 Z" id="Rectangle-14" stroke="#4F4240" stroke-width="4" stroke-linecap="round" stroke-linejoin="round" fill="#EAE7C8" sketch:type="MSShapeGroup" transform="translate(106.000000, 92.000000) scale(-1, 1) translate(-106.000000, -92.000000) "></path>
            <path d="M85,70 L89,73.5 L89,104.5 L85,104 L85,70 Z" id="Rectangle-24" stroke="#4F4240" stroke-width="2" stroke-linecap="round" stroke-linejoin="round" opacity="0.3" sketch:type="MSShapeGroup"></path>
            <path d="M43,70 L47,73.5 L47,105 L43,104 L43,70 Z" id="Rectangle-24" stroke="#4F4240" stroke-width="2" stroke-linecap="round" stroke-linejoin="round" opacity="0.2" sketch:type="MSShapeGroup" transform="translate(45.000000, 87.500000) scale(-1, 1) translate(-45.000000, -87.500000) "></path>
            <path d="M49,26.9980088 C49,17.6102678 55.4735704,6.00462323 63.5504485,1.20623365 C63.5504485,1.20623365 65,-1.09096485e-13 66,-1.13686838e-13 C67,-1.1827719e-13 68.4672906,1.21619882 68.4672906,1.21619882 C76.4934844,6.06735826 83,17.6088618 83,26.9980088 L83,56 L49,56 L49,26.9980088 Z" id="Rectangle-1" stroke="#4F4240" stroke-width="4" stroke-linecap="round" stroke-linejoin="round" fill="#EAE7C8" sketch:type="MSShapeGroup"></path>
            <path d="M66,2 C74.2842712,2 81,8.71818881 81,17.0056617 L81,54 L66,54 L66,2 Z" id="Rectangle-9" opacity="0.2" fill="#4F4240" sketch:type="MSShapeGroup"></path>
            <rect id="Rectangle-1" stroke="#4F4240" stroke-width="4" stroke-linecap="round" stroke-linejoin="round" fill="#917E75" sketch:type="MSShapeGroup" x="49" y="56" width="34" height="50"></rect>
            <rect id="Rectangle-19" opacity="0.2" fill="#4F4240" sketch:type="MSShapeGroup" x="66" y="58" width="15" height="46"></rect>
            <rect id="Rectangle-2" stroke="#4F4240" stroke-width="4" stroke-linecap="round" stroke-linejoin="round" fill="#EAE7C8" sketch:type="MSShapeGroup" x="34" y="106" width="64" height="26"></rect>
            <path d="M66,108 L85.7903408,108 C91.4289799,108 96,112.558414 96,118.194976 L96,130 L66,130 L66,108 Z" id="Rectangle-11" opacity="0.2" fill="#4F4240" sketch:type="MSShapeGroup"></path>
            <path d="M66,128 L66,106" id="Line" stroke="#4F4240" stroke-width="2" stroke-linecap="square" stroke-linejoin="round" sketch:type="MSShapeGroup"></path>
            <rect id="Rectangle-3" stroke="#4F4240" stroke-width="2" stroke-linecap="round" stroke-linejoin="round" fill="#67C39F" sketch:type="MSShapeGroup" x="43" y="132" width="46" height="7"></rect>
            <rect id="Rectangle-4" stroke="#4F4240" stroke-width="2" stroke-linecap="round" stroke-linejoin="round" fill="#67C39F" sketch:type="MSShapeGroup" x="51" y="137" width="30" height="8"></rect>
            <rect id="Rectangle-5" stroke="#4F4240" stroke-width="2" stroke-linecap="round" stroke-linejoin="round" fill="#EC7878" sketch:type="MSShapeGroup" x="44" y="106" width="11" height="11"></rect>
            <rect id="Rectangle-8" stroke="#4F4240" stroke-width="2" stroke-linecap="round" stroke-linejoin="round" fill="#67C39F" sketch:type="MSShapeGroup" x="78" y="106" width="11" height="11"></rect>
            <rect id="Rectangle-10" opacity="0.4" fill="#4F4240" sketch:type="MSShapeGroup" x="58" y="17" width="20" height="25"></rect>
            <rect id="Rectangle-12" stroke="#4F4240" stroke-width="2" stroke-linecap="round" stroke-linejoin="round" fill="#67C39F" sketch:type="MSShapeGroup" x="56" y="16.5" width="20" height="17.5"></rect>
            <path d="M64,21.5 L61,24.5" id="Line" stroke="#FFFFFF" stroke-width="2" stroke-linecap="round" stroke-linejoin="round" opacity="0.6" sketch:type="MSShapeGroup"></path>
            <rect id="Rectangle-16" stroke="#4F4240" stroke-width="2" stroke-linecap="round" stroke-linejoin="round" fill="#67C39F" sketch:type="MSShapeGroup" x="56" y="32" width="20" height="10"></rect>
            <rect id="Rectangle-10" stroke="#4F4240" stroke-width="2" stroke-linecap="round" stroke-linejoin="round" fill="#67C39F" sketch:type="MSShapeGroup" x="56" y="69" width="20" height="37"></rect>
            <circle id="Oval-2" stroke="#4F4240" stroke-width="2" stroke-linecap="round" stroke-linejoin="round" fill="#67C39F" sketch:type="MSShapeGroup" cx="15" cy="110" r="5"></circle>
            <circle id="Oval-3" opacity="0.7" fill="#FFFFFF" sketch:type="MSShapeGroup" cx="15" cy="110" r="2"></circle>
            <path d="M60,73.1903051 L60,102" id="Line-2" stroke="#FFFFFF" stroke-width="2" stroke-linecap="square" stroke-linejoin="round" opacity="0.5" sketch:type="MSShapeGroup"></path>
            <circle id="Oval-2" stroke="#4F4240" stroke-width="2" stroke-linecap="round" stroke-linejoin="round" fill="#EC7878" sketch:type="MSShapeGroup" cx="116" cy="110" r="5"></circle>
            <circle id="Oval-3" opacity="0.8" fill="#FFFFFF" sketch:type="MSShapeGroup" cx="116" cy="110" r="2"></circle>
            <path d="M72.099564,143 C72.6552283,138.55319 73,132.355409 73,125.5 C73,117.54507 72.5357653,110.475633 71.8164765,106 L68.1835235,106 C67.4642347,110.475633 67,117.54507 67,125.5 C67,132.355409 67.3447717,138.55319 67.900436,143 L72.099564,143 Z" id="Oval-1" opacity="0.4" fill="#4F4240" sketch:type="MSShapeGroup"></path>
            <ellipse id="Oval-1" stroke="#4F4240" stroke-width="2" stroke-linecap="round" stroke-linejoin="round" fill="#F0C782" sketch:type="MSShapeGroup" cx="66" cy="125.5" rx="3" ry="24.5"></ellipse>
            <path d="M7,121 L7,128" id="Line" stroke="#4F4240" stroke-width="2" stroke-linecap="round" stroke-linejoin="round" sketch:type="MSShapeGroup"></path>
            <path d="M12,127 L12,140" id="Line" stroke="#4F4240" stroke-width="2" stroke-linecap="round" stroke-linejoin="round" sketch:type="MSShapeGroup"></path>
            <path d="M19,120 L19,133" id="Line" stroke="#4F4240" stroke-width="2" stroke-linecap="round" stroke-linejoin="round" sketch:type="MSShapeGroup"></path>
            <path d="M25,125 L25,129" id="Line" stroke="#4F4240" stroke-width="2" stroke-linecap="round" stroke-linejoin="round" sketch:type="MSShapeGroup"></path>
            <path d="M56,144 L56,148" id="Line" stroke="#4F4240" stroke-width="2" stroke-linecap="round" stroke-linejoin="round" sketch:type="MSShapeGroup"></path>
            <path d="M60,148 L60,155" id="Line" stroke="#4F4240" stroke-width="2" stroke-linecap="round" stroke-linejoin="round" sketch:type="MSShapeGroup"></path>
            <path d="M105,133 L105,135" id="Line" stroke="#4F4240" stroke-width="2" stroke-linecap="round" stroke-linejoin="round" sketch:type="MSShapeGroup"></path>
            <path d="M19,136 L19,137" id="Line" stroke="#4F4240" stroke-width="2" stroke-linecap="round" stroke-linejoin="round" sketch:type="MSShapeGroup"></path>
            <path d="M71,145 L71,154" id="Line" stroke="#4F4240" stroke-width="2" stroke-linecap="round" stroke-linejoin="round" sketch:type="MSShapeGroup"></path>
            <path d="M75,144 L75,149" id="Line" stroke="#4F4240" stroke-width="2" stroke-linecap="round" stroke-linejoin="round" sketch:type="MSShapeGroup"></path>
            <path d="M105,126 L105,130" id="Line" stroke="#4F4240" stroke-width="2" stroke-linecap="round" stroke-linejoin="round" sketch:type="MSShapeGroup"></path>
            <path d="M111,122 L111,132" id="Line" stroke="#4F4240" stroke-width="2" stroke-linecap="round" stroke-linejoin="round" sketch:type="MSShapeGroup"></path>
            <path d="M117,125 L117,140" id="Line" stroke="#4F4240" stroke-width="2" stroke-linecap="round" stroke-linejoin="round" sketch:type="MSShapeGroup"></path>
            <path d="M124,122 L124,127" id="Line" stroke="#4F4240" stroke-width="2" stroke-linecap="round" stroke-linejoin="round" sketch:type="MSShapeGroup"></path>
        </g>
    </g>
</svg>